<svg width="26" height="24" viewBox="0 0 26 24" fill="none" xmlns="http://www.w3.org/2000/svg">
<path d="M9.875 7.25H9.8875M16.125 7.25H16.1375M20.5 1C21.4946 1 22.4484 1.39509 23.1517 2.09835C23.8549 2.80161 24.25 3.75544 24.25 4.75V14.75C24.25 15.7446 23.8549 16.6984 23.1517 17.4017C22.4484 18.1049 21.4946 18.5 20.5 18.5H14.25L8 22.25V18.5H5.5C4.50544 18.5 3.55161 18.1049 2.84835 17.4017C2.14509 16.6984 1.75 15.7446 1.75 14.75V4.75C1.75 3.75544 2.14509 2.80161 2.84835 2.09835C3.55161 1.39509 4.50544 1 5.5 1H20.5Z" stroke="#7887A6" stroke-width="2" stroke-linecap="round" stroke-linejoin="round"/>
<path d="M9.875 12.25C10.2823 12.6657 10.7686 12.996 11.3052 13.2215C11.8418 13.447 12.418 13.5631 13 13.5631C13.582 13.5631 14.1582 13.447 14.6948 13.2215C15.2314 12.996 15.7177 12.6657 16.125 12.25" stroke="#7887A6" stroke-width="2" stroke-linecap="round" stroke-linejoin="round"/>
</svg>
