<svg width="24" height="24" viewBox="0 0 24 24" fill="none" xmlns="http://www.w3.org/2000/svg">
<path d="M9.07031 13.7578C8.74672 13.7578 8.48438 14.0202 8.48438 14.3438V15.5156C8.48438 15.8392 8.74672 16.1016 9.07031 16.1016C9.39391 16.1016 9.65625 15.8392 9.65625 15.5156V14.3438C9.65625 14.0202 9.39391 13.7578 9.07031 13.7578Z" fill="#1E4397"/>
<path d="M14.9297 16.1016C15.2533 16.1016 15.5156 15.8392 15.5156 15.5156V14.3438C15.5156 14.0202 15.2533 13.7578 14.9297 13.7578C14.6061 13.7578 14.3438 14.0202 14.3438 14.3438V15.5156C14.3438 15.8392 14.6061 16.1016 14.9297 16.1016Z" fill="#1E4397"/>
<path d="M12.625 6.14062H19.0312C19.3548 6.14062 19.6172 5.87828 19.6172 5.55469C19.6172 5.23109 19.3548 4.96875 19.0312 4.96875H12.625C12.3014 4.96875 12.0391 5.23109 12.0391 5.55469C12.0391 5.87828 12.3014 6.14062 12.625 6.14062Z" fill="#1E4397"/>
<path d="M22 8.875V4.53906C22 3.13902 20.861 2 19.4609 2H12.1953C10.7953 2 9.65625 3.13902 9.65625 4.53906V9.07031H8.875C6.73332 9.07031 4.93715 10.577 4.49004 12.5859H4.38281V8.96953C5.0648 8.72766 5.55469 8.07637 5.55469 7.3125C5.55469 6.34324 4.76613 5.55469 3.79688 5.55469C2.82762 5.55469 2.03906 6.34324 2.03906 7.3125C2.03906 8.07637 2.52895 8.72766 3.21094 8.96953V12.6735C2.50871 12.904 2 13.5654 2 14.3438V16.6875C2 17.6568 2.78855 18.4453 3.75781 18.4453H4.48152C4.91391 20.4738 6.71945 22 8.875 22H15.125C17.2805 22 19.0861 20.4738 19.5185 18.4453H20.2422C21.2114 18.4453 22 17.6568 22 16.6875V14.3438C22 13.3745 21.2114 12.5859 20.2422 12.5859H19.5097C19.4187 12.1766 19.2709 11.7821 19.0704 11.4141H19.4609C20.861 11.4141 22 10.275 22 8.875ZM10.8281 4.53906C10.8281 3.7852 11.4414 3.17188 12.1953 3.17188H19.4609C20.2148 3.17188 20.8281 3.7852 20.8281 4.53906V8.875C20.8281 9.62887 20.2148 10.2422 19.4609 10.2422H12.5859C12.495 10.2422 12.4053 10.2634 12.3239 10.304L10.8281 11.0519V4.53906ZM3.79688 6.72656C4.11996 6.72656 4.38281 6.98941 4.38281 7.3125C4.38281 7.63559 4.11996 7.89844 3.79688 7.89844C3.47379 7.89844 3.21094 7.63559 3.21094 7.3125C3.21094 6.98941 3.47379 6.72656 3.79688 6.72656ZM3.17188 16.6875V14.3438C3.17188 14.0207 3.43473 13.7578 3.75781 13.7578H4.38281V17.2734H3.75781C3.43473 17.2734 3.17188 17.0106 3.17188 16.6875ZM20.8281 14.3438V16.6875C20.8281 17.0106 20.5653 17.2734 20.2422 17.2734H19.6172V13.7578H20.2422C20.5653 13.7578 20.8281 14.0207 20.8281 14.3438ZM18.4453 13.5625V17.5078C18.4453 19.3386 16.9558 20.8281 15.125 20.8281H8.875C7.04418 20.8281 5.55469 19.3386 5.55469 17.5078V13.5625C5.55469 11.7317 7.04418 10.2422 8.875 10.2422H9.65625V12C9.65625 12.4348 10.1149 12.7187 10.5042 12.5241L12.7243 11.4141H17.6555C18.1648 12.0134 18.4453 12.7736 18.4453 13.5625Z" fill="#1E4397"/>
<path d="M12.625 8.48438H19.0312C19.3548 8.48438 19.6172 8.22203 19.6172 7.89844C19.6172 7.57484 19.3548 7.3125 19.0312 7.3125H12.625C12.3014 7.3125 12.0391 7.57484 12.0391 7.89844C12.0391 8.22203 12.3014 8.48438 12.625 8.48438Z" fill="#1E4397"/>
<path d="M10.2422 17.8594C10.2422 18.183 10.5045 18.4453 10.8281 18.4453H13.1719C13.4955 18.4453 13.7578 18.183 13.7578 17.8594C13.7578 17.5358 13.4955 17.2734 13.1719 17.2734H10.8281C10.5045 17.2734 10.2422 17.5358 10.2422 17.8594Z" fill="#1E4397"/>
</svg>
