<svg width="29" height="29" viewBox="0 0 29 29" fill="none" xmlns="http://www.w3.org/2000/svg">
<g clip-path="url(#clip0_254_1118)">
<path fill-rule="evenodd" clip-rule="evenodd" d="M25.375 8.15625V19.9375H23.5625V8.15625H19.9375C19.2164 8.15625 18.5249 7.86981 18.0151 7.35995C17.5052 6.85008 17.2188 6.15856 17.2188 5.4375V1.8125H7.25C6.7693 1.8125 6.30828 2.00346 5.96837 2.34337C5.62846 2.68328 5.4375 3.1443 5.4375 3.625V19.9375H3.625V3.625C3.625 2.66359 4.00692 1.74156 4.68674 1.06174C5.36656 0.381919 6.28859 0 7.25 0L17.2188 0L25.375 8.15625ZM14.2463 26.8993C14.2566 27.1849 14.3267 27.4652 14.4518 27.7221C14.577 27.979 14.7546 28.2068 14.9731 28.391C15.2087 28.5867 15.4981 28.739 15.8412 28.8478C16.1844 28.9577 16.5862 29.0127 17.0466 29.0127C17.6592 29.0127 18.1776 28.9172 18.6017 28.7263C19.0306 28.5354 19.3569 28.2696 19.5804 27.9288C19.809 27.5749 19.927 27.161 19.9194 26.7398C19.9194 26.3338 19.8378 25.9955 19.6747 25.7248C19.5089 25.4532 19.2744 25.23 18.995 25.0778C18.6748 24.8999 18.3296 24.7715 17.9709 24.6971L16.8454 24.4361C16.58 24.3858 16.3292 24.2768 16.1113 24.1171C16.0289 24.0532 15.9626 23.9709 15.9176 23.8768C15.8727 23.7827 15.8502 23.6795 15.8521 23.5752C15.8521 23.2924 15.9633 23.0604 16.1856 22.8792C16.4128 22.6955 16.7227 22.6037 17.1154 22.6037C17.374 22.6037 17.5976 22.6448 17.7861 22.7269C17.9598 22.7963 18.1128 22.9093 18.2301 23.055C18.3417 23.1895 18.4166 23.3506 18.4476 23.5226H19.807C19.7842 23.1539 19.6593 22.7987 19.4463 22.4967C19.2179 22.1708 18.9045 21.9137 18.5401 21.7536C18.0952 21.5576 17.6122 21.4635 17.1263 21.4781C16.5946 21.4781 16.1252 21.5687 15.718 21.75C15.312 21.93 14.9936 22.1844 14.7628 22.5131C14.5332 22.8429 14.4184 23.229 14.4184 23.6713C14.4184 24.0362 14.4928 24.3527 14.6414 24.621C14.79 24.8892 15.0021 25.111 15.2776 25.2862C15.5543 25.459 15.8805 25.5877 16.2563 25.6722L17.3764 25.9332C17.751 26.0215 18.0301 26.1381 18.2138 26.2831C18.3041 26.352 18.3765 26.4417 18.4248 26.5446C18.473 26.6474 18.4958 26.7604 18.4911 26.8739C18.4952 27.0608 18.4414 27.2444 18.3371 27.3996C18.2203 27.5586 18.0597 27.6802 17.8749 27.7494C17.6719 27.834 17.4224 27.8763 17.1263 27.8763C16.9136 27.8763 16.7203 27.8521 16.5463 27.8038C16.385 27.7608 16.2323 27.6903 16.095 27.5953C15.9745 27.5171 15.8713 27.4149 15.7918 27.2952C15.7123 27.1755 15.6582 27.0408 15.6328 26.8993H14.2463ZM7.49287 21.6268H9.11144L6.80231 25.2644L9.07519 28.8749H7.42944L5.88881 26.3102H5.82537L4.27931 28.8749H2.71875L4.96625 25.2209L2.7405 21.6268H4.42794L5.93594 24.2331H6.00119L7.49287 21.6268ZM10.9783 27.6533H14.0541V28.8749H9.54462V21.6268H10.9783V27.6533ZM24.8186 21.6268H26.4371L24.128 25.2644L26.4009 28.8749H24.7551L23.2145 26.3102H23.1511L21.605 28.8749H20.0444L22.2919 25.2209L20.0662 21.6268H21.7536L23.2616 24.2331H23.3269L24.8186 21.6268Z" fill="#6F80DA"/>
</g>
<defs>
<clipPath id="clip0_254_1118">
<rect width="29" height="29" fill="white"/>
</clipPath>
</defs>
</svg>
