<svg width="101" height="40" viewBox="0 0 101 40" fill="none" xmlns="http://www.w3.org/2000/svg">
<path d="M78.2836 0.00124716V19.9582L78.0288 20.1702L77.7741 20.3798L77.5293 20.6005L77.2958 20.8213L77.0722 21.042L76.8499 21.2727L76.6376 21.5047L76.4253 21.7354V0.00124716H54.0839V18.1723H52.2357V0H29.8943V18.201H28.046V0.00124716H5.70461V20.7477L0 39.5585H5.01277L7.53039 31.2313H8.25346L12.4183 39.5585H18.4738L14.4364 31.2313H23.594L21.0551 39.5585H26.5262L29.0338 31.2525H30.2452V31.2313H42.4399L40.0172 39.5373H45.542L47.8898 31.2313H50.3749L50.4399 39.5373H55.0718L60.3942 31.2313H63.8784L62.0726 39.5373H67.5113L69.2846 31.2313H72.4304L72.4091 31.7039L72.4204 32.1878L72.4416 32.6493L72.4841 33.1132L72.5153 33.334L72.5478 33.5547L72.5902 33.7755L72.6327 33.9962L72.6851 34.2169L72.7388 34.4277L72.8013 34.6372L72.8662 34.848L72.9411 35.0588L73.0148 35.2583L73.0997 35.4579L73.1847 35.6474L73.2808 35.847L73.3757 36.0365L73.4819 36.2149L73.588 36.4045L73.7054 36.5828L73.8328 36.7512L73.9602 36.9295L74.0975 37.0879L74.2362 37.2563L74.3748 37.4134L74.5346 37.5718L74.6932 37.719L74.8955 37.8861L75.0966 38.0544L75.3089 38.2128L75.5337 38.36L75.756 38.5072L75.9795 38.6443L76.213 38.7591L76.4566 38.885L76.6901 38.9911L76.9349 39.0958L77.1796 39.1906L77.4344 39.2854L77.6892 39.3689L77.9439 39.4438L78.1987 39.5161L78.4547 39.5785L78.9642 39.6957L79.485 39.7793L79.9945 39.8541L80.504 39.9164L81.0035 39.9576L81.4931 39.9788L81.9701 40H82.4272L83.0441 39.99L83.6598 39.98L84.2867 39.9489L84.9136 39.9177L85.5405 39.8641L86.1662 39.8117L86.7931 39.7493L87.42 39.6745L88.0569 39.5909L88.695 39.4962L89.3319 39.3914L89.9688 39.2866L90.607 39.1706L91.2439 39.0447L91.882 38.9187L92.5301 38.7716L94.4209 31.2313H100.625V0.00249432H78.2836V0.00124716ZM7.77516 30.453L7.80763 30.337L7.88256 30.453H7.77516ZM27.238 19.2648L26.9196 20.3274L23.9449 30.1051L23.8275 30.453H14.0542L13.2999 28.8542L23.8275 18.2035H17.0614L8.82792 26.9834L11.4941 18.2035H6.50136V0.789449H27.238V19.2636V19.2648ZM33.0076 27.5297L32.8477 27.5397L32.6979 27.5497L32.5393 27.5596H31.9548L31.7738 27.5696H31.6039L30.2764 27.5596L30.8921 25.3098L31.1793 24.1948L31.8811 21.5758H32.337L32.5605 21.5671H33.8031L34.43 21.577L35.0045 21.597L35.2592 21.607L35.5027 21.6282L35.7363 21.6606L35.9486 21.6918L36.1409 21.7229L36.3207 21.7753L36.4905 21.829L36.6404 21.8913L36.7678 21.9537L36.8839 22.0385L36.9901 22.1233L37.075 22.228L37.1287 22.3128L37.1712 22.3964L37.2136 22.4912L37.2448 22.596L37.2661 22.7119L37.2786 22.8279V23.0898L37.2661 23.2382L37.2561 23.3854L37.2249 23.5538L37.1924 23.7209L37.0975 24.0788L36.9801 24.4779L36.8639 24.8146L36.7353 25.1414L36.5979 25.4457L36.4481 25.7301L36.3744 25.8548L36.2995 25.982L36.2146 26.1079L36.1196 26.2239L36.0235 26.3399L35.9286 26.4447L35.8224 26.5494L35.715 26.6442L35.5989 26.729L35.4815 26.8238L35.3541 26.8974L35.2168 26.981L35.0781 27.0558L34.9283 27.1181L34.7809 27.1805L34.6211 27.2329L34.4512 27.2965L34.2714 27.3389L34.0791 27.38L33.888 27.4224L33.6757 27.4536L33.4634 27.486L33.2399 27.5073L33.0063 27.5285L33.0076 27.5297ZM48.1133 30.453L50.2913 22.7768L50.3762 30.453H48.1133ZM51.4277 18.171H46.2438L42.6735 30.453H37.1712L37.4259 30.347L37.6807 30.2423L37.9254 30.1375L38.1702 30.0215L38.4037 29.9055L38.626 29.7683L38.8496 29.6436L39.0619 29.5064L39.2742 29.3593L39.4765 29.2121L39.6675 29.0649L39.8586 28.8966L40.0397 28.7394L40.2095 28.5598L40.3794 28.3915L40.5392 28.2032L40.6978 28.0236L40.8477 27.824L40.9851 27.6345L41.1224 27.4249L41.2498 27.2142L41.3672 27.0034L41.4846 26.7827L41.5907 26.5519L41.6969 26.32L41.7918 26.0892L41.8767 25.8473L41.9629 25.5954L42.0253 25.3422L42.1003 25.0903L42.154 24.8159L42.2064 24.554L42.2813 24.1337L42.3438 23.7346L42.3875 23.3555L42.4187 22.9975L42.4312 22.6409L42.4187 22.3141L42.4087 21.9886L42.3662 21.683L42.3238 21.3999L42.2489 21.1156L42.1752 20.8537L42.069 20.6005L41.9516 20.3586L41.8243 20.1166L41.6757 19.8959L41.5058 19.6851L41.3684 19.5379L41.2298 19.3908L41.08 19.2661L40.9214 19.1488L40.7515 19.0341L40.5817 18.9281L40.4006 18.8345L40.2208 18.7497L40.0297 18.6662L39.8386 18.6026L39.6363 18.5402L39.434 18.4766L39.2217 18.4242L39.0094 18.3818L38.7971 18.3394L38.5736 18.3082L38.1165 18.2459L37.6607 18.2135L37.1924 18.1823L36.7153 18.1723H30.691V0.790696H51.4277V18.171ZM64.027 30.453H60.9137L65.6305 23.0923L64.027 30.453ZM75.6161 18.5178L75.6061 22.7768L75.3401 23.1447L75.0966 23.5238L74.8518 23.9017L74.6283 24.2809L74.416 24.6587L74.2037 25.0479L74.0226 25.427L73.8428 25.8049L73.6729 26.1728L73.5231 26.5519L73.3745 26.9198L73.2471 27.2778L73.131 27.6345L73.0248 27.9812L72.9286 28.3179L72.8437 28.6546L72.79 28.8754L72.7376 29.1073L72.6839 29.3281L72.6414 29.5588L72.599 29.7796L72.5677 30.0003L72.5353 30.2211L72.514 30.453H69.4657L72.0682 18.2022L63.294 18.1922L55.4427 30.453H54.8682V0.790696H75.6161V18.5178ZM87.5798 35.4678L87.1427 35.5427L86.6969 35.605L86.2511 35.6674L85.8152 35.721L85.3806 35.7622L84.9435 35.7946L84.519 35.8158H83.8184L83.5424 35.8058L83.2764 35.7846L83.0116 35.7522L82.7556 35.711L82.5121 35.6686L82.2673 35.6163L82.0338 35.5539L81.8103 35.4791L81.588 35.4055L81.3757 35.3107L81.1734 35.2159L80.971 35.1012L80.78 34.9852L80.5989 34.8592L80.4291 34.7333L80.2592 34.5861L80.1106 34.4277L79.962 34.2706L79.8246 34.091L79.696 33.9126L79.5799 33.7131L79.4737 33.5135L79.3676 33.3028L79.2826 33.082L79.2077 32.8401L79.144 32.5981L79.0803 32.3462L79.0379 32.0843L79.0054 31.8099L78.9842 31.5256L78.9729 31.2313H88.6413L87.5786 35.4691L87.5798 35.4678ZM99.8382 30.453H94.6119L95.4724 27.0246H84.9972L84.1368 30.453H79.0704V29.7484L79.1328 29.4541L79.1865 29.1597L79.2502 28.8442L79.3139 28.5287L79.41 28.182L79.5049 27.834L79.6111 27.4873L79.7285 27.1506L79.8559 26.8138L79.9932 26.4771L80.1431 26.1528L80.2917 25.8261L80.4615 25.5006L80.6314 25.195L80.8124 24.8795L81.0135 24.5852L81.2158 24.2908L81.4169 24.0065L81.6417 23.7334L81.8739 23.4715L82.1187 23.2183L82.3635 22.9876L82.6282 22.7556L82.8942 22.5348L83.1702 22.3353L83.4674 22.1457L83.7647 21.9774L84.0731 21.8202L84.3916 21.6731L84.7213 21.5471L85.0609 21.4411L85.4119 21.3575L85.774 21.2827L86.1449 21.2316L86.5271 21.1991L86.9204 21.1892L87.2289 21.1991L87.5361 21.2203L87.8446 21.2627L88.1418 21.3251L88.2916 21.3675L88.429 21.4099L88.5664 21.4523L88.695 21.5147L88.8224 21.5671L88.9498 21.6419L89.0659 21.7142L89.1833 21.789L89.2894 21.8826L89.3956 21.9774L89.4918 22.0721L89.5867 22.1881L89.6716 22.2929L89.7465 22.4189L89.8102 22.556L89.8739 22.6932L89.9276 22.8391L89.97 22.9975L90.0013 23.1547L90.0337 23.3343L90.045 23.5126V23.9017L90.0238 24.1125H96.2704L96.3653 23.681L96.4502 23.1871L96.4926 22.924L96.5139 22.6396L96.5351 22.3565V22.0622L96.5251 21.7566L96.4939 21.4411L96.4614 21.2939L96.4402 21.1368L96.3977 20.9784L96.3553 20.8213L96.3028 20.6529L96.2491 20.4945L96.1867 20.3374L96.1118 20.179L96.0368 20.0218L95.9407 19.8634L95.8458 19.7063L95.7396 19.5492L95.6122 19.3808L95.4749 19.2224L95.335 19.0653L95.1864 18.9181L95.0278 18.7709L94.8579 18.6337L94.6881 18.5078L94.507 18.3818L94.316 18.2559L94.1249 18.1498L93.9226 18.0451L93.7103 17.9403L93.498 17.8455L93.2744 17.7508L93.0409 17.666L92.8074 17.5824L92.5739 17.5076L92.3191 17.4452L92.0743 17.3828L91.8083 17.3192L91.5436 17.2669L91.2776 17.2145L91.0016 17.1721L90.7143 17.1409L90.1299 17.0773L89.5355 17.0249L88.9086 17.0037L88.2717 16.9937L87.7934 17.0037L87.2938 17.0137L86.7731 17.0449L86.2311 17.0873L85.6691 17.1496L85.0947 17.2245L84.5102 17.318L83.9158 17.4452L83.6185 17.5076L83.3101 17.5824L83.0129 17.666L82.7044 17.7495L82.396 17.8443L82.0888 17.9491L81.7803 18.0551L81.4831 18.1698L81.1746 18.297L80.8661 18.4342L80.5689 18.5701L80.2605 18.7173L79.9632 18.8744L79.666 19.0428L79.3688 19.2112L79.0716 19.4007V0.789449H99.8395V30.4518L99.8382 30.453Z" fill="white"/>
</svg>
