<svg width="1589" height="762" viewBox="0 0 1589 762" fill="none" xmlns="http://www.w3.org/2000/svg">
<g opacity="0.1">
<path d="M374.598 669.209C202.275 669.209 62.0802 542.787 62.0802 387.392C62.0802 231.999 202.275 105.576 374.598 105.576C546.92 105.576 687.116 231.999 687.116 387.392C687.116 542.787 546.92 669.209 374.598 669.209ZM374.598 112.409C206.451 112.409 69.6572 235.767 69.6572 387.394C69.6572 539.021 206.451 662.374 374.598 662.374C542.743 662.374 679.544 539.02 679.544 387.394C679.544 235.765 542.743 112.409 374.598 112.409Z" fill="#CED6DB"/>
<path d="M374.598 707.638C178.776 707.638 19.464 563.976 19.464 387.394C19.464 210.811 178.774 67.1509 374.598 67.1509C570.419 67.1509 729.736 210.81 729.736 387.394C729.736 563.975 570.419 707.638 374.598 707.638ZM374.598 92.7652C194.442 92.7652 47.8722 224.936 47.8722 387.392C47.8722 549.849 194.441 682.018 374.598 682.018C554.754 682.018 701.323 549.849 701.323 387.392C701.323 224.937 554.753 92.7652 374.598 92.7652Z" fill="#CED6DB"/>
<path d="M374.598 766.047C143.06 766.047 -45.3097 596.181 -45.3097 387.392C-45.3097 178.602 143.06 8.73828 374.598 8.73828C606.133 8.73828 794.504 178.602 794.504 387.392C794.504 596.181 606.133 766.047 374.598 766.047ZM374.598 11.1223C144.516 11.1223 -42.666 179.916 -42.666 387.392C-42.666 594.868 144.516 763.663 374.598 763.663C604.678 763.663 791.862 594.868 791.862 387.392C791.862 179.917 604.676 11.1223 374.598 11.1223Z" fill="#CED6DB"/>
<path d="M374.598 656.656C209.952 656.656 76.0006 535.865 76.0006 387.394C76.0006 238.921 209.952 118.131 374.598 118.131C539.244 118.131 673.196 238.921 673.196 387.394C673.196 535.865 539.244 656.656 374.598 656.656ZM374.598 120.513C211.409 120.513 78.6443 240.236 78.6443 387.393C78.6443 534.548 211.407 654.272 374.598 654.272C537.786 654.272 670.552 534.55 670.552 387.393C670.552 240.238 537.786 120.513 374.598 120.513Z" fill="#CED6DB"/>
<path d="M624.345 412.794C639.904 288.417 540.704 176.216 402.775 162.184C264.846 148.153 140.419 237.606 124.859 361.983C109.299 486.359 208.499 598.561 346.428 612.592C484.358 626.623 608.785 537.171 624.345 412.794Z" fill="#CED6DB"/>
<path d="M148.379 388.286C148.379 275.621 249.661 184.294 374.598 184.294C499.537 184.294 600.821 275.622 600.821 388.286C600.821 500.952 499.535 592.281 374.598 592.281C249.661 592.281 148.379 500.952 148.379 388.286Z" fill="#DFE6EA"/>
<path d="M549.81 393.208C553.374 305.943 477.814 232.596 381.043 229.383C284.272 226.169 202.935 294.306 199.371 381.571C195.807 468.835 271.367 542.182 368.138 545.396C464.909 548.609 546.246 480.473 549.81 393.208Z" fill="#CED6DB"/>
<path d="M216.769 388.016C216.769 309.412 287.433 245.696 374.598 245.696C461.767 245.696 532.426 309.412 532.426 388.016C532.426 466.618 461.765 530.339 374.598 530.339C287.433 530.339 216.769 466.618 216.769 388.016Z" fill="#EFF2F4"/>
<path d="M385.611 9.93108C385.611 15.415 380.681 19.8607 374.598 19.8607C368.515 19.8607 363.582 15.415 363.582 9.93108C363.582 4.44573 368.514 0 374.598 0C380.68 0 385.611 4.44573 385.611 9.93108Z" fill="#CED6DB"/>
<path d="M385.611 764.854C385.611 770.342 380.681 774.788 374.598 774.788C368.515 774.788 363.582 770.342 363.582 764.854C363.582 759.369 368.514 754.923 374.598 754.923C380.68 754.924 385.611 759.369 385.611 764.854Z" fill="#CED6DB"/>
<path d="M678.37 127.509C674.069 131.387 667.099 131.385 662.797 127.509C658.496 123.63 658.496 117.342 662.797 113.465C667.099 109.586 674.069 109.586 678.37 113.465C682.671 117.343 682.671 123.63 678.37 127.509Z" fill="#CED6DB"/>
<path d="M86.4008 661.32C82.1014 665.199 75.1242 665.199 70.828 661.32C66.5253 657.444 66.5253 651.156 70.828 647.277C75.1258 643.399 82.1014 643.399 86.4008 647.277C90.7003 651.157 90.7003 657.444 86.4008 661.32Z" fill="#CED6DB"/>
<path d="M662.797 661.32C658.496 657.444 658.496 651.156 662.797 647.277C667.099 643.399 674.069 643.399 678.37 647.277C682.671 651.156 682.671 657.444 678.37 661.32C674.069 665.199 667.099 665.199 662.797 661.32Z" fill="#CED6DB"/>
<path d="M70.828 127.509C66.5253 123.63 66.5253 117.342 70.828 113.465C75.1258 109.586 82.1014 109.586 86.4008 113.465C90.7003 117.342 90.7052 123.63 86.4008 127.509C82.1014 131.385 75.1242 131.385 70.828 127.509Z" fill="#CED6DB"/>
<path d="M377.832 25.9756H371.365V50.6086H377.832V25.9756Z" fill="#CED6DB"/>
<path d="M377.832 724.179H371.364V748.81H377.832V724.179Z" fill="#CED6DB"/>
<path d="M363.844 26.0933L357.38 26.2969L358.334 50.9122L364.798 50.7087L363.844 26.0933Z" fill="#CED6DB"/>
<path d="M390.839 723.872L384.373 724.074L385.321 748.691L391.787 748.489L390.839 723.872Z" fill="#CED6DB"/>
<path d="M349.868 26.6482L343.416 27.0547L345.32 51.6286L351.772 51.2221L349.868 26.6482Z" fill="#CED6DB"/>
<path d="M403.853 723.173L397.4 723.579L399.305 748.157L405.757 747.751L403.853 723.173Z" fill="#CED6DB"/>
<path d="M335.926 27.6518L329.493 28.2607L332.345 52.7569L338.777 52.148L335.926 27.6518Z" fill="#CED6DB"/>
<path d="M416.83 722.012L410.398 722.621L413.253 747.12L419.685 746.511L416.83 722.012Z" fill="#CED6DB"/>
<path d="M322.024 29.0872L315.619 29.8979L319.415 54.2892L325.821 53.4785L322.024 29.0872Z" fill="#CED6DB"/>
<path d="M429.748 720.511L423.342 721.323L427.142 745.715L433.547 744.904L429.748 720.511Z" fill="#CED6DB"/>
<path d="M308.189 30.9636L301.82 31.9761L306.561 56.2304L312.93 55.2179L308.189 30.9636Z" fill="#CED6DB"/>
<path d="M442.611 718.54L436.242 719.552L440.981 743.809L447.351 742.798L442.611 718.54Z" fill="#CED6DB"/>
<path d="M294.442 33.264L288.116 34.4766L293.795 58.5716L300.121 57.359L294.442 33.264Z" fill="#CED6DB"/>
<path d="M455.402 716.208L449.076 717.422L454.761 741.517L461.087 740.303L455.402 716.208Z" fill="#CED6DB"/>
<path d="M280.772 36.0095L274.496 37.4209L281.107 61.3224L287.383 59.9109L280.772 36.0095Z" fill="#CED6DB"/>
<path d="M468.116 713.475L461.84 714.887L468.45 738.787L474.726 737.375L468.116 713.475Z" fill="#CED6DB"/>
<path d="M267.23 39.1742L261.014 40.7812L268.542 64.4596L274.758 62.8526L267.23 39.1742Z" fill="#CED6DB"/>
<path d="M480.638 710.323L474.421 711.931L481.956 735.611L488.173 734.003L480.638 710.323Z" fill="#CED6DB"/>
<path d="M253.82 42.7594L247.667 44.562L256.109 67.9919L262.262 66.1892L253.82 42.7594Z" fill="#CED6DB"/>
<path d="M493.056 706.764L486.905 708.566L495.345 731.991L501.496 730.188L493.056 706.764Z" fill="#CED6DB"/>
<path d="M240.567 46.7686L234.489 48.7627L243.829 71.9104L249.907 69.9163L240.567 46.7686Z" fill="#CED6DB"/>
<path d="M505.369 702.893L499.291 704.889L508.636 728.036L514.714 726.041L505.369 702.893Z" fill="#CED6DB"/>
<path d="M227.459 51.2068L221.462 53.3916L231.694 76.23L237.691 74.0452L227.459 51.2068Z" fill="#CED6DB"/>
<path d="M517.477 698.546L511.48 700.731L521.717 723.571L527.713 721.386L517.477 698.546Z" fill="#CED6DB"/>
<path d="M214.547 56.0313L208.638 58.4033L219.748 80.9056L225.656 78.5336L214.547 56.0313Z" fill="#CED6DB"/>
<path d="M529.453 693.907L523.544 696.279L534.655 718.786L540.564 716.414L529.453 693.907Z" fill="#CED6DB"/>
<path d="M201.798 61.2799L195.985 63.8374L207.964 85.9789L213.777 83.4214L201.798 61.2799Z" fill="#CED6DB"/>
<path d="M541.226 688.793L535.413 691.35L547.392 713.488L553.204 710.93L541.226 688.793Z" fill="#CED6DB"/>
<path d="M189.301 66.9106L183.59 69.6489L196.416 91.3974L202.126 88.6591L189.301 66.9106Z" fill="#CED6DB"/>
<path d="M552.775 683.41L547.064 686.148L559.895 707.901L565.605 705.162L552.775 683.41Z" fill="#CED6DB"/>
<path d="M176.997 72.9358L171.396 75.8525L185.056 97.1835L190.657 94.2667L176.997 72.9358Z" fill="#CED6DB"/>
<path d="M564.106 677.604L558.505 680.52L572.166 701.856L577.767 698.94L564.106 677.604Z" fill="#CED6DB"/>
<path d="M164.958 79.3566L159.473 82.4478L173.953 103.339L179.438 100.248L164.958 79.3566Z" fill="#CED6DB"/>
<path d="M575.265 671.443L569.781 674.534L584.265 695.431L589.748 692.341L575.265 671.443Z" fill="#CED6DB"/>
<path d="M153.162 86.1327L147.799 89.3936L163.072 109.817L168.435 106.556L153.162 86.1327Z" fill="#CED6DB"/>
<path d="M586.097 664.973L580.735 668.234L596.013 688.659L601.375 685.397L586.097 664.973Z" fill="#CED6DB"/>
<path d="M141.639 93.2801L136.408 96.709L152.466 116.633L157.698 113.205L141.639 93.2801Z" fill="#CED6DB"/>
<path d="M596.748 658.126L591.515 661.555L607.575 681.486L612.807 678.058L596.748 658.126Z" fill="#CED6DB"/>
<path d="M130.384 100.791L125.288 104.382L142.108 123.794L147.204 120.203L130.384 100.791Z" fill="#CED6DB"/>
<path d="M607.07 651.015L601.973 654.606L618.795 674.021L623.892 670.43L607.07 651.015Z" fill="#CED6DB"/>
<path d="M119.451 108.646L114.496 112.394L132.052 131.264L137.007 127.516L119.451 108.646Z" fill="#CED6DB"/>
<path d="M617.123 643.485L612.17 647.234L629.737 666.106L634.691 662.357L617.123 643.485Z" fill="#CED6DB"/>
<path d="M108.832 116.847L104.026 120.749L122.304 139.054L127.11 135.151L108.832 116.847Z" fill="#CED6DB"/>
<path d="M626.907 635.735L622.099 639.639L640.384 657.948L645.191 654.044L626.907 635.735Z" fill="#CED6DB"/>
<path d="M98.5206 125.393L93.8696 129.446L112.852 147.159L117.503 143.107L98.5206 125.393Z" fill="#CED6DB"/>
<path d="M636.346 627.662L631.694 631.713L650.673 649.434L655.325 645.382L636.346 627.662Z" fill="#CED6DB"/>
<path d="M88.5288 134.226L84.0356 138.421L103.687 155.536L108.18 151.34L88.5288 134.226Z" fill="#CED6DB"/>
<path d="M645.499 619.268L641.006 623.464L660.655 640.572L665.148 636.376L645.499 619.268Z" fill="#CED6DB"/>
<path d="M78.9184 143.395L74.5908 147.729L94.8963 164.214L99.2239 159.88L78.9184 143.395Z" fill="#CED6DB"/>
<path d="M654.287 610.555L649.959 614.889L670.262 631.374L674.589 627.04L654.287 610.555Z" fill="#CED6DB"/>
<path d="M69.6411 152.827L65.4836 157.294L86.4083 173.129L90.5658 168.661L69.6411 152.827Z" fill="#CED6DB"/>
<path d="M662.766 601.658L658.61 606.127L679.548 621.962L683.704 617.493L662.766 601.658Z" fill="#CED6DB"/>
<path d="M60.7385 162.572L56.7556 167.167L78.2798 182.337L82.2627 177.742L60.7385 162.572Z" fill="#CED6DB"/>
<path d="M670.915 592.416L666.934 597.012L688.471 612.183L692.453 607.586L670.915 592.416Z" fill="#CED6DB"/>
<path d="M52.2337 172.596L48.4326 177.315L70.5386 191.795L74.3397 187.076L52.2337 172.596Z" fill="#CED6DB"/>
<path d="M678.616 582.994L674.815 587.713L696.923 602.191L700.723 597.472L678.616 582.994Z" fill="#CED6DB"/>
<path d="M44.1107 182.866L40.4945 187.702L63.1442 201.475L66.7603 196.639L44.1107 182.866Z" fill="#CED6DB"/>
<path d="M685.999 573.288L682.384 578.124L705.035 591.895L708.65 587.059L685.999 573.288Z" fill="#CED6DB"/>
<path d="M36.4225 193.408L32.9952 198.354L56.1626 211.408L59.5899 206.461L36.4225 193.408Z" fill="#CED6DB"/>
<path d="M693.047 563.353L689.621 568.3L712.795 581.35L716.221 576.403L693.047 563.353Z" fill="#CED6DB"/>
<path d="M29.1028 204.148L25.868 209.2L49.523 221.516L52.7577 216.463L29.1028 204.148Z" fill="#CED6DB"/>
<path d="M699.633 553.249L696.4 558.301L720.062 570.614L723.295 565.562L699.633 553.249Z" fill="#CED6DB"/>
<path d="M22.2174 215.129L19.1808 220.278L43.2973 231.843L46.334 226.693L22.2174 215.129Z" fill="#CED6DB"/>
<path d="M705.858 542.902L702.821 548.052L726.942 559.618L729.979 554.469L705.858 542.902Z" fill="#CED6DB"/>
<path d="M15.7657 226.326L12.9309 231.568L37.4803 242.364L40.3152 237.122L15.7657 226.326Z" fill="#CED6DB"/>
<path d="M711.683 532.425L708.848 537.667L733.401 548.464L736.235 543.222L711.683 532.425Z" fill="#CED6DB"/>
<path d="M9.77853 237.705L7.14807 243.033L32.1005 253.05L34.7309 247.723L9.77853 237.705Z" fill="#CED6DB"/>
<path d="M717.105 521.726L714.475 527.054L739.433 537.071L742.063 531.742L717.105 521.726Z" fill="#CED6DB"/>
<path d="M4.20958 249.302L1.78674 254.71L27.1089 263.935L29.5317 258.528L4.20958 249.302Z" fill="#CED6DB"/>
<path d="M722.072 510.859L719.649 516.267L744.977 525.498L747.401 520.09L722.072 510.859Z" fill="#CED6DB"/>
<path d="M-0.937843 261.04L-3.15039 266.522L22.5162 274.945L24.7287 269.463L-0.937843 261.04Z" fill="#CED6DB"/>
<path d="M726.668 499.858L724.456 505.338L750.127 513.763L752.339 508.283L726.668 499.858Z" fill="#CED6DB"/>
<path d="M-5.5582 272.945L-7.55725 278.494L18.4238 286.105L20.4228 280.557L-5.5582 272.945Z" fill="#CED6DB"/>
<path d="M730.816 488.683L728.817 494.232L754.803 501.845L756.802 496.296L730.816 488.683Z" fill="#CED6DB"/>
<path d="M-9.78217 284.99L-11.5658 290.598L14.6938 297.389L16.4775 291.781L-9.78217 284.99Z" fill="#CED6DB"/>
<path d="M734.512 477.408L732.729 483.016L758.99 489.805L760.773 484.197L734.512 477.408Z" fill="#CED6DB"/>
<path d="M-13.5137 297.129L-15.0782 302.789L11.4241 308.747L12.9887 303.087L-13.5137 297.129Z" fill="#CED6DB"/>
<path d="M737.783 466.035L736.218 471.694L762.723 477.656L764.289 471.996L737.783 466.035Z" fill="#CED6DB"/>
<path d="M-16.7581 309.417L-18.1024 315.121L8.6157 320.242L9.96002 314.538L-16.7581 309.417Z" fill="#CED6DB"/>
<path d="M740.584 454.571L739.239 460.274L765.958 465.398L767.303 459.695L740.584 454.571Z" fill="#CED6DB"/>
<path d="M-19.543 321.753L-20.6658 327.497L6.23261 331.773L7.35543 326.029L-19.543 321.753Z" fill="#CED6DB"/>
<path d="M742.958 443.002L741.836 448.746L768.742 453.023L769.865 447.279L742.958 443.002Z" fill="#CED6DB"/>
<path d="M-21.8411 334.214L-22.7407 339.99L4.30789 343.416L5.20756 337.64L-21.8411 334.214Z" fill="#CED6DB"/>
<path d="M744.912 431.369L744.012 437.145L771.069 440.574L771.969 434.798L744.912 431.369Z" fill="#CED6DB"/>
<path d="M-23.6617 346.695L-24.3369 352.496L2.8232 355.067L3.49844 349.266L-23.6617 346.695Z" fill="#CED6DB"/>
<path d="M746.375 419.705L745.699 425.505L772.867 428.082L773.543 422.282L746.375 419.705Z" fill="#CED6DB"/>
<path d="M-24.9863 359.29L-25.4377 365.108L1.80863 366.827L2.26008 361.009L-24.9863 359.29Z" fill="#CED6DB"/>
<path d="M747.403 407.958L746.952 413.776L774.205 415.493L774.655 409.675L747.403 407.958Z" fill="#CED6DB"/>
<path d="M-25.8486 371.876L-26.0743 377.705L1.22282 378.565L1.44855 372.736L-25.8486 371.876Z" fill="#CED6DB"/>
<path d="M747.965 396.227L747.74 402.056L775.047 402.913L775.272 397.084L747.965 396.227Z" fill="#CED6DB"/>
<path d="M1.11955 384.475H-26.1908V390.307H1.11955V384.475Z" fill="#CED6DB"/>
<path d="M775.396 384.47H748.076V390.303H775.396V384.47Z" fill="#CED6DB"/>
<path d="M1.23366 396.233L-26.0635 397.093L-25.8378 402.922L1.45939 402.062L1.23366 396.233Z" fill="#CED6DB"/>
<path d="M775.044 371.858L747.734 372.718L747.96 378.547L775.27 377.687L775.044 371.858Z" fill="#CED6DB"/>
<path d="M1.7774 407.977L-25.469 409.696L-25.0175 415.514L2.22886 413.795L1.7774 407.977Z" fill="#CED6DB"/>
<path d="M774.185 359.24L746.93 360.967L747.384 366.785L774.639 365.057L774.185 359.24Z" fill="#CED6DB"/>
<path d="M2.81197 419.674L-24.3481 422.252L-23.671 428.053L3.48915 425.474L2.81197 419.674Z" fill="#CED6DB"/>
<path d="M772.857 346.705L745.684 349.285L746.361 355.087L773.534 352.507L772.857 346.705Z" fill="#CED6DB"/>
<path d="M4.31541 431.357L-22.7289 434.791L-21.8273 440.566L5.21702 437.133L4.31541 431.357Z" fill="#CED6DB"/>
<path d="M771.063 334.199L744.002 337.629L744.902 343.405L771.964 339.975L771.063 334.199Z" fill="#CED6DB"/>
<path d="M6.20832 442.993L-20.6901 447.274L-19.566 453.018L7.33243 448.737L6.20832 442.993Z" fill="#CED6DB"/>
<path d="M768.745 321.758L741.84 326.04L742.964 331.783L769.869 327.502L768.745 321.758Z" fill="#CED6DB"/>
<path d="M8.61199 454.579L-18.1034 459.709L-16.7561 465.414L9.95924 460.283L8.61199 454.579Z" fill="#CED6DB"/>
<path d="M765.95 309.391L739.225 314.516L740.571 320.22L767.295 315.095L765.95 309.391Z" fill="#CED6DB"/>
<path d="M11.435 466.053L-15.0626 472.013L-13.4974 477.672L13.0002 471.712L11.435 466.053Z" fill="#CED6DB"/>
<path d="M762.722 297.111L736.212 303.073L737.777 308.732L764.287 302.77L762.722 297.111Z" fill="#CED6DB"/>
<path d="M14.6793 477.427L-11.5757 484.215L-9.79271 489.823L16.4623 483.035L14.6793 477.427Z" fill="#CED6DB"/>
<path d="M758.988 284.96L732.721 291.751L734.504 297.359L760.771 290.568L758.988 284.96Z" fill="#CED6DB"/>
<path d="M18.3609 488.696L-7.61548 496.306L-5.61642 501.855L20.36 494.244L18.3609 488.696Z" fill="#CED6DB"/>
<path d="M754.769 272.905L728.787 280.52L730.787 286.066L756.768 278.451L754.769 272.905Z" fill="#CED6DB"/>
<path d="M22.5179 499.85L-3.14709 508.275L-0.935015 513.755L24.73 505.329L22.5179 499.85Z" fill="#CED6DB"/>
<path d="M750.125 261.048L724.452 269.476L726.665 274.955L752.337 266.527L750.125 261.048Z" fill="#CED6DB"/>
<path d="M27.1129 510.828L1.79504 520.055L4.21853 525.462L29.5364 516.235L27.1129 510.828Z" fill="#CED6DB"/>
<path d="M744.976 249.296L719.648 258.527L722.071 263.935L747.4 254.703L744.976 249.296Z" fill="#CED6DB"/>
<path d="M32.0891 521.68L7.14111 531.696L9.77157 537.024L34.7195 527.008L32.0891 521.68Z" fill="#CED6DB"/>
<path d="M739.409 237.722L714.449 247.742L717.079 253.07L742.039 243.049L739.409 237.722Z" fill="#CED6DB"/>
<path d="M37.4869 532.416L12.9404 543.213L15.7766 548.456L40.3231 537.66L37.4869 532.416Z" fill="#CED6DB"/>
<path d="M733.416 226.333L708.862 237.133L711.698 242.376L736.252 231.577L733.416 226.333Z" fill="#CED6DB"/>
<path d="M43.292 542.912L19.1812 554.474L22.2178 559.623L46.3287 548.061L43.292 542.912Z" fill="#CED6DB"/>
<path d="M726.952 215.146L702.827 226.715L705.863 231.864L729.989 220.296L726.952 215.146Z" fill="#CED6DB"/>
<path d="M49.5009 553.273L25.8488 565.59L29.0825 570.639L52.7346 558.323L49.5009 553.273Z" fill="#CED6DB"/>
<path d="M720.086 204.158L696.42 216.476L699.654 221.528L723.32 209.211L720.086 204.158Z" fill="#CED6DB"/>
<path d="M56.1655 563.391L33.0077 576.442L36.4365 581.389L59.5943 568.338L56.1655 563.391Z" fill="#CED6DB"/>
<path d="M712.765 193.396L689.592 206.454L693.02 211.401L716.193 198.344L712.765 193.396Z" fill="#CED6DB"/>
<path d="M63.1793 573.321L40.5377 587.096L44.1561 591.932L66.7977 578.158L63.1793 573.321Z" fill="#CED6DB"/>
<path d="M705.07 182.851L682.417 196.633L686.036 201.469L708.688 187.688L705.07 182.851Z" fill="#CED6DB"/>
<path d="M70.5333 582.988L48.4327 597.468L52.2345 602.187L74.3351 587.706L70.5333 582.988Z" fill="#CED6DB"/>
<path d="M696.946 172.597L674.839 187.082L678.641 191.8L700.748 177.315L696.946 172.597Z" fill="#CED6DB"/>
<path d="M78.3181 592.446L56.795 607.611L60.7773 612.207L82.3004 597.042L78.3181 592.446Z" fill="#CED6DB"/>
<path d="M688.424 162.582L666.892 177.75L670.874 182.346L692.406 167.178L688.424 162.582Z" fill="#CED6DB"/>
<path d="M86.4402 601.621L65.5193 617.452L69.6768 621.92L90.5977 606.088L86.4402 601.621Z" fill="#CED6DB"/>
<path d="M679.532 152.826L658.601 168.665L662.759 173.133L683.689 157.294L679.532 152.826Z" fill="#CED6DB"/>
<path d="M94.9166 610.581L74.6223 627.062L78.9505 631.396L99.2448 614.915L94.9166 610.581Z" fill="#CED6DB"/>
<path d="M670.276 143.369L649.972 159.857L654.301 164.191L674.605 147.703L670.276 143.369Z" fill="#CED6DB"/>
<path d="M103.698 619.242L84.0549 636.354L88.5488 640.548L108.192 623.436L103.698 619.242Z" fill="#CED6DB"/>
<path d="M660.649 134.217L640.998 151.332L645.49 155.526L665.141 138.411L660.649 134.217Z" fill="#CED6DB"/>
<path d="M112.832 627.63L93.8541 645.344L98.5057 649.396L117.483 631.682L112.832 627.63Z" fill="#CED6DB"/>
<path d="M650.676 125.367L631.704 143.096L636.357 147.145L655.329 129.416L650.676 125.367Z" fill="#CED6DB"/>
<path d="M122.261 635.703L103.988 654.008L108.795 657.91L127.068 639.605L122.261 635.703Z" fill="#CED6DB"/>
<path d="M640.373 116.835L622.099 135.149L626.907 139.051L645.181 120.736L640.373 116.835Z" fill="#CED6DB"/>
<path d="M132.078 643.5L114.528 662.371L119.483 666.118L137.034 647.248L132.078 643.5Z" fill="#CED6DB"/>
<path d="M629.736 108.641L612.177 127.52L617.133 131.268L634.692 112.388L629.736 108.641Z" fill="#CED6DB"/>
<path d="M142.091 651.014L125.273 670.424L130.37 674.015L147.188 654.605L142.091 651.014Z" fill="#CED6DB"/>
<path d="M618.803 100.788L601.98 120.205L607.076 123.796L623.9 104.379L618.803 100.788Z" fill="#CED6DB"/>
<path d="M152.474 658.133L136.421 678.056L141.654 681.484L157.707 661.561L152.474 658.133Z" fill="#CED6DB"/>
<path d="M607.555 93.2732L591.494 113.206L596.727 116.634L612.787 96.7015L607.555 93.2732Z" fill="#CED6DB"/>
<path d="M163.055 664.98L147.785 685.399L153.148 688.66L168.418 668.241L163.055 664.98Z" fill="#CED6DB"/>
<path d="M596.032 86.1276L580.756 106.556L586.118 109.817L601.395 89.3884L596.032 86.1276Z" fill="#CED6DB"/>
<path d="M173.904 671.47L159.433 692.359L164.918 695.449L179.389 674.56L173.904 671.47Z" fill="#CED6DB"/>
<path d="M584.242 79.3464L569.767 100.243L575.252 103.333L589.728 82.4364L584.242 79.3464Z" fill="#CED6DB"/>
<path d="M185.055 677.588L171.399 698.916L177 701.832L190.656 680.504L185.055 677.588Z" fill="#CED6DB"/>
<path d="M572.183 72.9225L558.526 94.2598L564.129 97.1761L577.786 75.8389L572.183 72.9225Z" fill="#CED6DB"/>
<path d="M196.417 683.423L183.599 705.173L189.311 707.91L202.129 686.16L196.417 683.423Z" fill="#CED6DB"/>
<path d="M559.891 66.8989L547.072 88.6562L552.784 91.3928L565.603 69.6355L559.891 66.8989Z" fill="#CED6DB"/>
<path d="M207.948 688.816L195.975 710.945L201.788 713.502L213.761 691.374L207.948 688.816Z" fill="#CED6DB"/>
<path d="M547.382 61.2646L535.404 83.4087L541.219 85.9662L553.197 63.8221L547.382 61.2646Z" fill="#CED6DB"/>
<path d="M219.77 693.88L208.662 716.38L214.571 718.752L225.679 696.252L219.77 693.88Z" fill="#CED6DB"/>
<path d="M534.653 56.024L523.541 78.5327L529.45 80.9047L540.562 58.396L534.653 56.024Z" fill="#CED6DB"/>
<path d="M231.668 698.567L221.439 721.403L227.436 723.587L237.665 700.751L231.668 698.567Z" fill="#CED6DB"/>
<path d="M521.731 51.193L511.498 74.0396L517.495 76.2238L527.728 53.3773L521.731 51.193Z" fill="#CED6DB"/>
<path d="M243.851 702.863L234.516 726.008L240.595 728.001L249.929 704.857L243.851 702.863Z" fill="#CED6DB"/>
<path d="M508.627 46.7619L499.287 69.9189L505.365 71.9125L514.705 48.7555L508.627 46.7619Z" fill="#CED6DB"/>
<path d="M256.075 706.821L247.634 730.242L253.786 732.045L262.228 708.624L256.075 706.821Z" fill="#CED6DB"/>
<path d="M495.363 42.7557L486.932 66.1895L493.084 67.9893L501.515 44.5556L495.363 42.7557Z" fill="#CED6DB"/>
<path d="M268.51 710.346L260.988 734.02L267.206 735.626L274.727 711.952L268.51 710.346Z" fill="#CED6DB"/>
<path d="M481.953 39.1658L474.427 62.8525L480.643 64.4584L488.169 40.7716L481.953 39.1658Z" fill="#CED6DB"/>
<path d="M281.077 713.45L274.475 737.349L280.749 738.758L287.351 714.859L281.077 713.45Z" fill="#CED6DB"/>
<path d="M468.412 36.0031L461.807 59.9116L468.083 61.3213L474.687 37.4128L468.412 36.0031Z" fill="#CED6DB"/>
<path d="M293.756 716.232L288.075 740.323L294.403 741.536L300.084 717.445L293.756 716.232Z" fill="#CED6DB"/>
<path d="M454.759 33.263L449.076 57.3623L455.404 58.5757L461.087 34.4764L454.759 33.263Z" fill="#CED6DB"/>
<path d="M306.579 718.55L301.847 742.804L308.217 743.815L312.95 719.561L306.579 718.55Z" fill="#CED6DB"/>
<path d="M440.993 30.9533L436.258 55.2188L442.628 56.2295L447.363 31.9641L440.993 30.9533Z" fill="#CED6DB"/>
<path d="M319.439 720.514L315.637 744.901L322.042 745.713L325.844 721.326L319.439 720.514Z" fill="#CED6DB"/>
<path d="M427.168 29.0805L423.365 53.4775L429.77 54.2894L433.573 29.8924L427.168 29.0805Z" fill="#CED6DB"/>
<path d="M332.323 722.039L329.469 746.532L335.901 747.142L338.755 722.648L332.323 722.039Z" fill="#CED6DB"/>
<path d="M413.27 27.6445L410.416 52.145L416.848 52.7545L419.703 28.254L413.27 27.6445Z" fill="#CED6DB"/>
<path d="M345.351 723.143L343.445 747.713L349.897 748.12L351.803 723.55L345.351 723.143Z" fill="#CED6DB"/>
<path d="M399.315 26.6493L397.422 51.229L403.874 51.6332L405.768 27.0534L399.315 26.6493Z" fill="#CED6DB"/>
<path d="M358.328 723.894L357.38 748.508L363.846 748.711L364.794 724.097L358.328 723.894Z" fill="#CED6DB"/>
<path d="M385.34 26.0854L384.392 50.7109L390.856 50.9133L391.804 26.2878L385.34 26.0854Z" fill="#CED6DB"/>
<path d="M1520.93 521.06H1510.81L1495.56 506.787H1505.67L1520.93 521.06Z" fill="#B0B5B7"/>
<path d="M1539.98 521.06H1529.87L1514.61 506.787H1524.72L1539.98 521.06Z" fill="#B0B5B7"/>
<path d="M1559.03 521.06H1548.92L1533.67 506.787H1543.78L1559.03 521.06Z" fill="#B0B5B7"/>
<path d="M1578.09 521.06H1567.98L1552.72 506.787H1562.83L1578.09 521.06Z" fill="#B0B5B7"/>
<path d="M1597.14 521.06H1587.03L1571.78 506.787H1581.89L1597.14 521.06Z" fill="#B0B5B7"/>
<path d="M1656.27 374.469H1304.87L1213.96 292.498H1012.65L916.445 205.741H781.765C781.318 205.741 780.956 205.415 780.956 205.012C780.956 204.61 781.318 204.283 781.765 204.283H917.115L1013.32 291.04H1214.63L1305.54 373.011H1656.27C1656.71 373.011 1657.07 373.338 1657.07 373.74C1657.07 374.143 1656.71 374.469 1656.27 374.469Z" fill="#CED6DB"/>
<path d="M940.832 297.178H540.57C540.124 297.178 539.762 296.852 539.762 296.449C539.762 296.047 540.124 295.72 540.57 295.72H940.161L1054.5 192.618H1201.86L1286.86 269.265H1375.66L1594.17 72.2235C1594.49 71.9392 1595 71.9392 1595.31 72.2235C1595.63 72.5078 1595.63 72.97 1595.31 73.2544L1376.33 270.723H1286.19L1201.19 194.076H1055.17L940.832 297.178Z" fill="#B0B5B7"/>
<path d="M1656.27 530.255H1350.59L1119.04 321.456H966.002L868.411 233.451H588.539C587.646 233.451 586.922 232.798 586.922 231.993C586.922 231.188 587.646 230.535 588.539 230.535H869.749L967.341 318.539H1120.38L1351.92 527.339H1656.27C1657.16 527.339 1657.88 527.99 1657.88 528.797C1657.88 529.602 1657.16 530.255 1656.27 530.255Z" fill="#B0B5B7"/>
<path d="M1351.38 488.133H1094.31L909.699 321.66H649.983C649.537 321.66 649.175 321.333 649.175 320.931C649.175 320.528 649.537 320.202 649.983 320.202H910.369L1094.98 486.675H1350.72L1530.16 324.856H1695.68C1696.13 324.856 1696.49 325.183 1696.49 325.585C1696.49 325.987 1696.13 326.314 1695.68 326.314H1530.84L1351.38 488.133Z" fill="#B0B5B7"/>
<path d="M806.084 266.01H709.002C708.555 266.01 708.193 265.684 708.193 265.281C708.193 264.879 708.555 264.552 709.002 264.552H805.414L907.282 172.692H1079.89L1150.22 236.119H1318.53L1504.37 68.5301C1504.69 68.2458 1505.2 68.2458 1505.52 68.5301C1505.83 68.8145 1505.83 69.2767 1505.52 69.561L1319.2 237.577H1149.56L1079.22 174.15H907.952L806.084 266.01Z" fill="#CED6DB"/>
<path d="M1395.73 571.687H1277.07L1080.36 394.305H832.665L774.152 341.541H531.946C531.499 341.541 531.137 341.214 531.137 340.812C531.137 340.41 531.499 340.083 531.946 340.083H774.823L833.336 392.847H1081.03L1277.74 570.227H1395.06L1517.93 459.431H1656.27C1656.71 459.431 1657.07 459.758 1657.07 460.16C1657.07 460.562 1656.71 460.889 1656.27 460.889H1518.6L1395.73 571.687Z" fill="#B0B5B7"/>
<path d="M783.783 180.225H656.452C655.56 180.225 654.835 179.572 654.835 178.767C654.835 177.962 655.56 177.309 656.452 177.309H782.444L854.666 112.18H1130.63L1185.06 63.0916C1185.69 62.5215 1186.72 62.5215 1187.35 63.0916C1187.98 63.6618 1187.98 64.5833 1187.35 65.1534L1131.97 115.095H856.005L783.783 180.225Z" fill="#B0B5B7"/>
<path d="M390.732 435.154C390.318 435.154 389.904 435.011 389.589 434.726C388.957 434.156 388.957 433.235 389.589 432.665L477.058 353.789H753.203L829.327 422.433H967.177C968.07 422.433 968.794 423.086 968.794 423.891C968.794 424.696 968.07 425.349 967.177 425.349H827.987L751.862 356.705H478.397L391.875 434.726C391.56 435.012 391.146 435.154 390.732 435.154Z" fill="#B0B5B7"/>
<path d="M733.256 205.741H614.075L548.455 146.567H390.732C390.286 146.567 389.924 146.241 389.924 145.838C389.924 145.436 390.286 145.109 390.732 145.109H549.124L614.745 204.283H733.256C733.702 204.283 734.065 204.61 734.065 205.012C734.065 205.415 733.702 205.741 733.256 205.741Z" fill="#B0B5B7"/>
<path d="M656.452 266.01H568.801L483.236 188.852H376.718C376.272 188.852 375.91 188.526 375.91 188.123C375.91 187.721 376.272 187.394 376.718 187.394H483.906L569.47 264.552H656.452C656.899 264.552 657.261 264.879 657.261 265.281C657.261 265.684 656.899 266.01 656.452 266.01Z" fill="#B0B5B7"/>
<path d="M541.465 297.047C541.258 297.047 541.051 296.976 540.892 296.834L465.976 229.276H376.718C376.272 229.276 375.91 228.95 375.91 228.547C375.91 228.145 376.272 227.818 376.718 227.818H466.645L542.035 295.802C542.351 296.086 542.351 296.549 542.035 296.833C541.878 296.976 541.672 297.047 541.465 297.047Z" fill="#B0B5B7"/>
<path d="M1436.14 322.389H1323.04C1322.15 322.389 1321.42 321.736 1321.42 320.931C1321.42 320.126 1322.15 319.473 1323.04 319.473H1434.8L1530.24 233.407H1579.9C1580.79 233.407 1581.52 234.06 1581.52 234.865C1581.52 235.67 1580.79 236.323 1579.9 236.323H1531.58L1436.14 322.389Z" fill="#B0B5B7"/>
<path d="M1395.4 581.285C1389.08 581.285 1383.95 576.651 1383.95 570.958C1383.95 565.264 1389.08 560.63 1395.4 560.63C1401.71 560.63 1406.85 565.264 1406.85 570.958C1406.85 576.651 1401.71 581.285 1395.4 581.285ZM1395.4 562.088C1389.97 562.088 1385.56 566.066 1385.56 570.958C1385.56 575.848 1389.97 579.827 1395.4 579.827C1400.82 579.827 1405.23 575.849 1405.23 570.958C1405.23 566.066 1400.82 562.088 1395.4 562.088Z" fill="#CED6DB"/>
<path d="M1395.4 577.682C1399.52 577.682 1402.86 574.672 1402.86 570.958C1402.86 567.244 1399.52 564.233 1395.4 564.233C1391.28 564.233 1387.94 567.244 1387.94 570.958C1387.94 574.672 1391.28 577.682 1395.4 577.682Z" fill="#CED6DB"/>
<path d="M1304.92 384.067C1298.6 384.067 1293.47 379.435 1293.47 373.74C1293.47 368.044 1298.6 363.412 1304.92 363.412C1311.23 363.412 1316.37 368.044 1316.37 373.74C1316.37 379.435 1311.23 384.067 1304.92 384.067ZM1304.92 364.87C1299.49 364.87 1295.08 368.849 1295.08 373.74C1295.08 378.63 1299.49 382.609 1304.92 382.609C1310.34 382.609 1314.75 378.63 1314.75 373.74C1314.75 368.849 1310.34 364.87 1304.92 364.87Z" fill="#CED6DB"/>
<path d="M1304.92 380.465C1309.04 380.465 1312.38 377.454 1312.38 373.74C1312.38 370.026 1309.04 367.015 1304.92 367.015C1300.8 367.015 1297.46 370.026 1297.46 373.74C1297.46 377.454 1300.8 380.465 1304.92 380.465Z" fill="#CED6DB"/>
<path d="M1311.45 331.258C1305.14 331.258 1300 326.626 1300 320.931C1300 315.235 1305.14 310.603 1311.45 310.603C1317.77 310.603 1322.91 315.235 1322.91 320.931C1322.91 326.626 1317.77 331.258 1311.45 331.258ZM1311.45 312.061C1306.03 312.061 1301.62 316.04 1301.62 320.931C1301.62 325.821 1306.03 329.8 1311.45 329.8C1316.88 329.8 1321.29 325.821 1321.29 320.931C1321.29 316.04 1316.88 312.061 1311.45 312.061Z" fill="#CED6DB"/>
<path d="M1311.45 327.655C1315.57 327.655 1318.91 324.644 1318.91 320.93C1318.91 317.216 1315.57 314.206 1311.45 314.206C1307.33 314.206 1303.99 317.216 1303.99 320.93C1303.99 324.644 1307.33 327.655 1311.45 327.655Z" fill="#CED6DB"/>
<path d="M1192.1 320.93C1192.1 324.644 1188.76 327.655 1184.64 327.655C1180.52 327.655 1177.18 324.644 1177.18 320.93C1177.18 317.217 1180.52 314.206 1184.64 314.206C1188.76 314.206 1192.1 317.217 1192.1 320.93Z" fill="#CED6DB"/>
<path d="M1577.02 434.547C1581.14 434.547 1584.47 431.536 1584.47 427.822C1584.47 424.108 1581.14 421.098 1577.02 421.098C1572.9 421.098 1569.56 424.108 1569.56 427.822C1569.56 431.536 1572.9 434.547 1577.02 434.547Z" fill="#CED6DB"/>
<path d="M1101.25 204.521C1094.93 204.521 1089.8 199.889 1089.8 194.193C1089.8 188.498 1094.93 183.866 1101.25 183.866C1107.56 183.866 1112.7 188.498 1112.7 194.193C1112.7 199.889 1107.56 204.521 1101.25 204.521ZM1101.25 185.324C1095.82 185.324 1091.41 189.303 1091.41 194.193C1091.41 199.084 1095.82 203.063 1101.25 203.063C1106.67 203.063 1111.08 199.084 1111.08 194.193C1111.08 189.303 1106.67 185.324 1101.25 185.324Z" fill="#CED6DB"/>
<path d="M1101.25 200.918C1105.37 200.918 1108.71 197.907 1108.71 194.193C1108.71 190.48 1105.37 187.469 1101.25 187.469C1097.13 187.469 1093.79 190.48 1093.79 194.193C1093.79 197.907 1097.13 200.918 1101.25 200.918Z" fill="#CED6DB"/>
<path d="M978.764 434.425C972.449 434.425 967.312 429.793 967.312 424.097C967.312 418.402 972.449 413.77 978.764 413.77C985.08 413.77 990.217 418.402 990.217 424.097C990.217 429.793 985.08 434.425 978.764 434.425ZM978.764 415.228C973.341 415.228 968.928 419.207 968.928 424.097C968.928 428.988 973.341 432.967 978.764 432.967C984.188 432.967 988.6 428.988 988.6 424.097C988.6 419.207 984.188 415.228 978.764 415.228Z" fill="#B0B5B7"/>
<path d="M978.764 430.822C982.883 430.822 986.222 427.811 986.222 424.097C986.222 420.383 982.883 417.373 978.764 417.373C974.646 417.373 971.307 420.383 971.307 424.097C971.307 427.811 974.646 430.822 978.764 430.822Z" fill="#B0B5B7"/>
<path d="M771.12 215.34C764.804 215.34 759.667 210.708 759.667 205.012C759.667 199.317 764.804 194.685 771.12 194.685C777.436 194.685 782.573 199.317 782.573 205.012C782.573 210.708 777.436 215.34 771.12 215.34ZM771.12 196.143C765.697 196.143 761.284 200.122 761.284 205.012C761.284 209.903 765.697 213.882 771.12 213.882C776.544 213.882 780.956 209.903 780.956 205.012C780.956 200.122 776.544 196.143 771.12 196.143Z" fill="#CED6DB"/>
<path d="M771.12 211.737C775.239 211.737 778.578 208.726 778.578 205.012C778.578 201.298 775.239 198.288 771.12 198.288C767.002 198.288 763.663 201.298 763.663 205.012C763.663 208.726 767.002 211.737 771.12 211.737Z" fill="#CED6DB"/>
<path d="M648.114 186.021C643.679 186.021 640.07 182.766 640.07 178.767C640.07 174.767 643.679 171.513 648.114 171.513C652.549 171.513 656.158 174.767 656.158 178.767C656.158 182.766 652.549 186.021 648.114 186.021ZM648.114 172.971C644.57 172.971 641.687 175.571 641.687 178.767C641.687 181.963 644.57 184.563 648.114 184.563C651.658 184.563 654.541 181.963 654.541 178.767C654.541 175.571 651.658 172.971 648.114 172.971Z" fill="#B0B5B7"/>
<path d="M653.185 178.767C653.185 181.291 650.914 183.338 648.115 183.338C645.317 183.338 643.046 181.291 643.046 178.767C643.046 176.243 645.317 174.196 648.115 174.196C650.914 174.196 653.185 176.243 653.185 178.767Z" fill="#B0B5B7"/>
<path d="M483.571 195.378C479.136 195.378 475.527 192.123 475.527 188.124C475.527 184.124 479.136 180.87 483.571 180.87C488.007 180.87 491.616 184.124 491.616 188.124C491.616 192.123 488.007 195.378 483.571 195.378ZM483.571 182.328C480.027 182.328 477.144 184.928 477.144 188.124C477.144 191.32 480.027 193.92 483.571 193.92C487.116 193.92 489.999 191.32 489.999 188.124C489.999 184.928 487.116 182.328 483.571 182.328Z" fill="#B0B5B7"/>
<path d="M488.64 188.123C488.64 190.647 486.37 192.695 483.571 192.695C480.772 192.695 478.502 190.647 478.502 188.123C478.502 185.599 480.772 183.552 483.571 183.552C486.37 183.552 488.64 185.599 488.64 188.123Z" fill="#B0B5B7"/>
<path d="M642.294 328.185C637.859 328.185 634.25 324.93 634.25 320.931C634.25 316.931 637.859 313.677 642.294 313.677C646.73 313.677 650.339 316.931 650.339 320.931C650.339 324.93 646.73 328.185 642.294 328.185ZM642.294 315.135C638.75 315.135 635.867 317.735 635.867 320.931C635.867 324.127 638.75 326.727 642.294 326.727C645.839 326.727 648.722 324.127 648.722 320.931C648.722 317.735 645.837 315.135 642.294 315.135Z" fill="#B0B5B7"/>
<path d="M647.364 320.931C647.364 323.455 645.093 325.502 642.294 325.502C639.495 325.502 637.225 323.455 637.225 320.931C637.225 318.407 639.495 316.36 642.294 316.36C645.093 316.36 647.364 318.407 647.364 320.931Z" fill="#B0B5B7"/>
<path d="M524.71 348.068C520.274 348.068 516.665 344.813 516.665 340.814C516.665 336.814 520.274 333.56 524.71 333.56C529.145 333.56 532.754 336.814 532.754 340.814C532.754 344.813 529.145 348.068 524.71 348.068ZM524.71 335.018C521.165 335.018 518.282 337.617 518.282 340.814C518.282 344.01 521.165 346.61 524.71 346.61C528.254 346.61 531.137 344.01 531.137 340.814C531.137 337.617 528.254 335.018 524.71 335.018Z" fill="#B0B5B7"/>
<path d="M529.779 340.814C529.779 343.339 527.509 345.385 524.71 345.385C521.911 345.385 519.641 343.338 519.641 340.814C519.641 338.29 521.911 336.243 524.71 336.243C527.509 336.243 529.779 338.288 529.779 340.814Z" fill="#B0B5B7"/>
<path d="M872.584 213.153C877.57 213.153 881.611 209.508 881.611 205.012C881.611 200.516 877.57 196.872 872.584 196.872C867.598 196.872 863.557 200.516 863.557 205.012C863.557 209.508 867.598 213.153 872.584 213.153Z" fill="#CED6DB"/>
<path d="M1580.72 235.399C1580.95 230.908 1577.09 227.102 1572.11 226.898C1567.13 226.694 1562.91 230.17 1562.68 234.662C1562.46 239.153 1566.31 242.959 1571.29 243.163C1576.27 243.366 1580.49 239.89 1580.72 235.399Z" fill="#CED6DB"/>
<path d="M1485.93 373.74C1485.93 378.235 1481.89 381.881 1476.9 381.881C1471.92 381.881 1467.87 378.235 1467.87 373.74C1467.87 369.245 1471.92 365.6 1476.9 365.6C1481.89 365.6 1485.93 369.245 1485.93 373.74Z" fill="#CED6DB"/>
<path d="M1447.65 528.797C1447.65 531.74 1445 534.126 1441.73 534.126C1438.47 534.126 1435.82 531.739 1435.82 528.797C1435.82 525.851 1438.47 523.464 1441.73 523.464C1445 523.464 1447.65 525.853 1447.65 528.797Z" fill="#CED6DB"/>
<path d="M1190.55 487.406C1190.55 490.348 1187.9 492.735 1184.64 492.735C1181.37 492.735 1178.73 490.348 1178.73 487.406C1178.73 484.461 1181.38 482.074 1184.64 482.074C1187.9 482.074 1190.55 484.461 1190.55 487.406Z" fill="#CED6DB"/>
<path d="M1249.94 245.146C1254.93 245.146 1258.97 241.502 1258.97 237.006C1258.97 232.51 1254.93 228.865 1249.94 228.865C1244.96 228.865 1240.91 232.51 1240.91 237.006C1240.91 241.502 1244.96 245.146 1249.94 245.146Z" fill="#CED6DB"/>
<path d="M1352.35 238.594C1352.35 241.763 1349.5 244.333 1345.98 244.333C1342.47 244.333 1339.62 241.763 1339.62 238.594C1339.62 235.424 1342.47 232.854 1345.98 232.854C1349.5 232.854 1352.35 235.424 1352.35 238.594Z" fill="#CED6DB"/>
<path d="M1375.09 248.822C1375.09 252.176 1372.07 254.895 1368.35 254.895C1364.63 254.895 1361.62 252.176 1361.62 248.822C1361.62 245.468 1364.63 242.749 1368.35 242.749C1372.07 242.749 1375.09 245.468 1375.09 248.822Z" fill="#B0B5B7"/>
<path d="M991.16 404.344C997.708 404.344 1003.02 399.557 1003.02 393.652C1003.02 387.747 997.708 382.959 991.16 382.959C984.611 382.959 979.303 387.747 979.303 393.652C979.303 399.557 984.611 404.344 991.16 404.344Z" fill="#B0B5B7"/>
<path d="M1305.07 498.097C1311.62 498.097 1316.93 493.31 1316.93 487.405C1316.93 481.499 1311.62 476.712 1305.07 476.712C1298.52 476.712 1293.22 481.499 1293.22 487.405C1293.22 493.31 1298.52 498.097 1305.07 498.097Z" fill="#CED6DB"/>
<path d="M945.885 296.449C945.885 299.201 943.411 301.431 940.36 301.431C937.309 301.431 934.835 299.201 934.835 296.449C934.835 293.698 937.309 291.467 940.36 291.467C943.411 291.468 945.885 293.699 945.885 296.449Z" fill="#CED6DB"/>
<path d="M757.578 355.249C757.578 358 755.104 360.231 752.053 360.231C749.002 360.231 746.528 358 746.528 355.249C746.528 352.497 749.002 350.267 752.053 350.267C755.104 350.267 757.578 352.497 757.578 355.249Z" fill="#B0B5B7"/>
<path d="M979.351 272.515C972.589 272.515 967.087 267.554 967.087 261.457C967.087 255.359 972.588 250.398 979.351 250.398C986.113 250.398 991.614 255.359 991.614 261.457C991.616 267.554 986.113 272.515 979.351 272.515ZM979.351 251.855C973.48 251.855 968.704 256.162 968.704 261.455C968.704 266.75 973.48 271.055 979.351 271.055C985.222 271.055 989.997 266.748 989.997 261.455C989.999 256.162 985.222 251.855 979.351 251.855Z" fill="#CED6DB"/>
<path d="M987.27 261.455C987.27 265.398 983.724 268.594 979.351 268.594C974.979 268.594 971.435 265.396 971.435 261.455C971.435 257.513 974.981 254.316 979.351 254.316C983.722 254.316 987.27 257.514 987.27 261.455Z" fill="#CED6DB"/>
<path d="M709.002 273.422C713.987 273.422 718.029 269.777 718.029 265.281C718.029 260.785 713.987 257.141 709.002 257.141C704.016 257.141 699.974 260.785 699.974 265.281C699.974 269.777 704.016 273.422 709.002 273.422Z" fill="#B0B5B7"/>
<path d="M656.452 273.422C661.438 273.422 665.48 269.777 665.48 265.281C665.48 260.785 661.438 257.141 656.452 257.141C651.467 257.141 647.425 260.785 647.425 265.281C647.425 269.777 651.467 273.422 656.452 273.422Z" fill="#B0B5B7"/>
<path d="M541.465 304.459C546.45 304.459 550.492 300.814 550.492 296.318C550.492 291.822 546.45 288.178 541.465 288.178C536.479 288.178 532.437 291.822 532.437 296.318C532.437 300.814 536.479 304.459 541.465 304.459Z" fill="#B0B5B7"/>
<path d="M474.19 228.548C474.19 233.043 470.147 236.688 465.162 236.688C460.177 236.688 456.135 233.043 456.135 228.548C456.135 224.052 460.177 220.407 465.162 220.407C470.147 220.407 474.19 224.052 474.19 228.548Z" fill="#B0B5B7"/>
<path d="M842.805 235.152C844.74 235.152 846.308 233.738 846.308 231.993C846.308 230.248 844.74 228.833 842.805 228.833C840.869 228.833 839.301 230.248 839.301 231.993C839.301 233.738 840.869 235.152 842.805 235.152Z" fill="#CED6DB"/>
<path d="M916.646 210.601C920.069 210.601 922.844 208.099 922.844 205.012C922.844 201.926 920.069 199.423 916.646 199.423C913.223 199.423 910.448 201.926 910.448 205.012C910.448 208.099 913.223 210.601 916.646 210.601Z" fill="#CED6DB"/>
<path d="M737.973 210.601C741.396 210.601 744.17 208.099 744.17 205.012C744.17 201.926 741.396 199.423 737.973 199.423C734.55 199.423 731.775 201.926 731.775 205.012C731.775 208.099 734.55 210.601 737.973 210.601Z" fill="#B0B5B7"/>
<path d="M588.539 237.582C591.962 237.582 594.737 235.08 594.737 231.993C594.737 228.907 591.962 226.404 588.539 226.404C585.116 226.404 582.341 228.907 582.341 231.993C582.341 235.08 585.116 237.582 588.539 237.582Z" fill="#B0B5B7"/>
<path d="M1268.2 146.567H760.476C760.03 146.567 759.667 146.241 759.667 145.838C759.667 145.436 760.03 145.109 760.476 145.109H1268.2C1268.65 145.109 1269.01 145.436 1269.01 145.838C1269.01 146.241 1268.65 146.567 1268.2 146.567Z" fill="#CED6DB"/>
<path d="M755.893 151.427C759.316 151.427 762.091 148.925 762.091 145.838C762.091 142.752 759.316 140.25 755.893 140.25C752.47 140.25 749.696 142.752 749.696 145.838C749.696 148.925 752.47 151.427 755.893 151.427Z" fill="#CED6DB"/>
<path d="M1268.2 151.429C1271.62 151.429 1274.4 148.926 1274.4 145.838C1274.4 142.751 1271.62 140.248 1268.2 140.248C1264.77 140.248 1262 142.751 1262 145.838C1262 148.926 1264.77 151.429 1268.2 151.429Z" fill="#CED6DB"/>
<path d="M1347.3 237.735C1347.1 237.735 1346.89 237.664 1346.73 237.522C1346.42 237.238 1346.42 236.776 1346.73 236.492L1535.09 66.641C1535.4 66.3567 1535.91 66.3567 1536.23 66.641C1536.55 66.9253 1536.55 67.3875 1536.23 67.6719L1347.87 237.521C1347.72 237.664 1347.51 237.735 1347.3 237.735Z" fill="#CED6DB"/>
<path d="M1370.72 247.19C1370.52 247.19 1370.31 247.119 1370.15 246.977C1369.84 246.693 1369.84 246.231 1370.15 245.947L1558.51 76.0946C1558.82 75.8103 1559.33 75.8103 1559.65 76.0946C1559.96 76.3789 1559.96 76.8411 1559.65 77.1255L1371.3 246.976C1371.14 247.119 1370.93 247.19 1370.72 247.19Z" fill="#B0B5B7"/>
<path d="M1574.12 428.552H1302.84L1184.07 321.446C1183.75 321.161 1183.75 320.699 1184.07 320.415C1184.38 320.131 1184.9 320.131 1185.21 320.415L1303.51 427.094H1574.12C1574.57 427.094 1574.93 427.42 1574.93 427.823C1574.93 428.225 1574.57 428.552 1574.12 428.552Z" fill="#CED6DB"/>
<path d="M995.348 341.928H985.237L969.981 327.656H980.09L995.348 341.928Z" fill="#CED6DB"/>
<path d="M1014.4 341.928H1004.29L989.035 327.656H999.146L1014.4 341.928Z" fill="#CED6DB"/>
<path d="M1033.46 341.928H1023.35L1008.09 327.656H1018.2L1033.46 341.928Z" fill="#CED6DB"/>
<path d="M1052.51 341.928H1042.4L1027.15 327.656H1037.26L1052.51 341.928Z" fill="#CED6DB"/>
<path d="M1071.57 341.928H1061.46L1046.2 327.656H1056.31L1071.57 341.928Z" fill="#CED6DB"/>
<path d="M1090.62 341.928H1080.51L1065.26 327.656H1075.36L1090.62 341.928Z" fill="#CED6DB"/>
<path d="M1109.68 341.928H1099.57L1084.31 327.656H1094.42L1109.68 341.928Z" fill="#CED6DB"/>
<path d="M1128.73 341.928H1118.62L1103.37 327.656H1113.48L1128.73 341.928Z" fill="#CED6DB"/>
<path d="M810.281 473.273H791.529L763.236 446.804H781.985L810.281 473.273Z" fill="#CED6DB"/>
<path d="M845.62 473.273H826.87L798.573 446.804H817.325L845.62 473.273Z" fill="#CED6DB"/>
<path d="M880.961 473.273H862.21L833.913 446.804H852.665L880.961 473.273Z" fill="#CED6DB"/>
<path d="M916.3 473.273H897.548L869.253 446.804H888.005L916.3 473.273Z" fill="#CED6DB"/>
<path d="M951.638 473.273H932.89L904.592 446.804H923.343L951.638 473.273Z" fill="#CED6DB"/>
<path d="M986.98 473.273H968.228L939.932 446.804H958.682L986.98 473.273Z" fill="#CED6DB"/>
<path d="M1022.32 473.273H1003.57L975.275 446.804H994.02L1022.32 473.273Z" fill="#CED6DB"/>
<path d="M1057.66 473.273H1038.91L1010.61 446.804H1029.36L1057.66 473.273Z" fill="#CED6DB"/>
<path d="M1411.3 110.722H1430.05L1458.35 84.2529H1439.6L1411.3 110.722Z" fill="#CED6DB"/>
<path d="M1375.96 110.722H1394.71L1423.01 84.2529H1404.26L1375.96 110.722Z" fill="#CED6DB"/>
<path d="M1340.62 110.722H1359.37L1387.67 84.2529H1368.92L1340.62 110.722Z" fill="#CED6DB"/>
<path d="M1305.28 110.722H1324.03L1352.33 84.2529H1333.58L1305.28 110.722Z" fill="#CED6DB"/>
<path d="M1269.94 110.722H1288.69L1316.99 84.2529H1298.24L1269.94 110.722Z" fill="#CED6DB"/>
<path d="M1234.6 110.722H1253.35L1281.65 84.2529H1262.9L1234.6 110.722Z" fill="#CED6DB"/>
<path d="M1199.26 110.722H1218.02L1246.31 84.2529H1227.56L1199.26 110.722Z" fill="#CED6DB"/>
<path d="M1163.92 110.722H1182.67L1210.97 84.2529H1192.22L1163.92 110.722Z" fill="#CED6DB"/>
<path d="M484.415 401.762H495.904L511.984 388.197L493.981 373.011H482.494L500.497 388.197L484.415 401.762Z" fill="#B0B5B7"/>
<path d="M502.354 401.762H513.842L529.921 388.197L511.918 373.011H500.429L518.434 388.197L502.354 401.762Z" fill="#B0B5B7"/>
<path d="M520.289 401.762H531.777L547.858 388.197L529.855 373.011H518.366L536.369 388.197L520.289 401.762Z" fill="#B0B5B7"/>
<path d="M538.226 401.762H549.714L565.795 388.197L547.792 373.011H536.303L554.306 388.197L538.226 401.762Z" fill="#B0B5B7"/>
<path d="M556.163 401.762H567.651L583.73 388.197L565.728 373.011H554.24L572.243 388.197L556.163 401.762Z" fill="#B0B5B7"/>
<path d="M574.099 401.762H585.588L601.667 388.197L583.664 373.011H572.177L590.18 388.197L574.099 401.762Z" fill="#B0B5B7"/>
<path d="M592.036 401.762H603.525L619.604 388.197L601.601 373.011H590.114L608.115 388.197L592.036 401.762Z" fill="#B0B5B7"/>
<path d="M609.972 401.762H621.46L637.541 388.197L619.537 373.011H608.049L626.052 388.197L609.972 401.762Z" fill="#B0B5B7"/>
<path d="M627.908 401.762H639.397L655.477 388.197L637.474 373.011H625.986L643.989 388.197L627.908 401.762Z" fill="#B0B5B7"/>
<path d="M645.845 401.762H657.334L673.414 388.197L655.41 373.011H643.923L661.926 388.197L645.845 401.762Z" fill="#B0B5B7"/>
<path d="M663.782 401.762H675.271L691.349 388.197L673.346 373.011H661.859L679.863 388.197L663.782 401.762Z" fill="#B0B5B7"/>
<path d="M1198.52 183.418H1208.04L1221.36 172.183L1206.45 159.607H1196.93L1211.84 172.183L1198.52 183.418Z" fill="#CED6DB"/>
<path d="M1213.38 183.418H1222.9L1236.21 172.183L1221.3 159.607H1211.79L1226.7 172.183L1213.38 183.418Z" fill="#CED6DB"/>
<path d="M1228.24 183.418H1237.75L1251.07 172.183L1236.16 159.607H1226.64L1241.55 172.183L1228.24 183.418Z" fill="#CED6DB"/>
<path d="M1243.09 183.418H1252.61L1265.93 172.183L1251.02 159.607H1241.5L1256.41 172.183L1243.09 183.418Z" fill="#CED6DB"/>
<path d="M1257.95 183.418H1267.46L1280.78 172.183L1265.87 159.607H1256.36L1271.27 172.183L1257.95 183.418Z" fill="#CED6DB"/>
<path d="M1272.81 183.418H1282.32L1295.64 172.183L1280.73 159.607H1271.21L1286.12 172.183L1272.81 183.418Z" fill="#CED6DB"/>
<path d="M1287.66 183.418H1297.17L1310.49 172.183L1295.58 159.607H1286.07L1300.98 172.183L1287.66 183.418Z" fill="#CED6DB"/>
<path d="M1302.52 183.418H1312.03L1325.35 172.183L1310.44 159.607H1300.92L1315.83 172.183L1302.52 183.418Z" fill="#CED6DB"/>
<path d="M1317.37 183.418H1326.89L1340.2 172.183L1325.29 159.607H1315.78L1330.69 172.183L1317.37 183.418Z" fill="#CED6DB"/>
<path d="M1332.23 183.418H1341.74L1355.06 172.183L1340.15 159.607H1330.63L1345.54 172.183L1332.23 183.418Z" fill="#CED6DB"/>
<path d="M1347.08 183.418H1356.6L1369.91 172.183L1355 159.607H1345.49L1360.4 172.183L1347.08 183.418Z" fill="#CED6DB"/>
</g>
</svg>
