<svg width="29" height="29" viewBox="0 0 29 29" fill="none" xmlns="http://www.w3.org/2000/svg">
<path fill-rule="evenodd" clip-rule="evenodd" d="M25.375 8.15625V25.375C25.375 26.3364 24.9931 27.2584 24.3133 27.9383C23.6334 28.6181 22.7114 29 21.75 29H19.9375V27.1875H21.75C22.2307 27.1875 22.6917 26.9965 23.0316 26.6566C23.3715 26.3167 23.5625 25.8557 23.5625 25.375V8.15625H19.9375C19.2164 8.15625 18.5249 7.86981 18.0151 7.35995C17.5052 6.85008 17.2188 6.15856 17.2188 5.4375V1.8125H7.25C6.7693 1.8125 6.30828 2.00346 5.96837 2.34337C5.62846 2.68328 5.4375 3.1443 5.4375 3.625V19.9375H3.625V3.625C3.625 2.66359 4.00692 1.74156 4.68674 1.06174C5.36656 0.381919 6.28859 0 7.25 0L17.2188 0L25.375 8.15625ZM2.9 21.4781H0V28.7263H1.43369V26.2939H2.88912C3.40871 26.2939 3.85096 26.1894 4.21587 25.9804C4.58442 25.7689 4.86415 25.4825 5.05506 25.1212C5.25406 24.7433 5.35443 24.3212 5.34688 23.8942C5.34688 23.4411 5.25142 23.032 5.0605 22.6671C4.86924 22.3064 4.58031 22.0068 4.22675 21.8026C3.86425 21.5851 3.422 21.4769 2.9 21.4781ZM3.88781 23.8942C3.89397 24.133 3.84105 24.3695 3.73375 24.5829C3.63754 24.7689 3.48711 24.9212 3.30238 25.0197C3.09123 25.1237 2.85795 25.1747 2.62269 25.1684H1.42825V22.62H2.6245C3.01962 22.62 3.32896 22.7294 3.5525 22.9481C3.77604 23.1692 3.88781 23.4846 3.88781 23.8942ZM6.09362 21.4781V28.7263H8.73988C9.46729 28.7263 10.0703 28.5831 10.5488 28.2968C11.033 28.007 11.4111 27.5692 11.6272 27.0479C11.864 26.5042 11.9824 25.8493 11.9824 25.0832C11.9824 24.3219 11.864 23.6725 11.6272 23.1347C11.4132 22.6198 11.0388 22.1875 10.5596 21.9022C10.0811 21.6195 9.47394 21.4781 8.73806 21.4781H6.09362ZM7.52731 22.6472H8.54775C8.99604 22.6472 9.36398 22.739 9.65156 22.9227C9.94976 23.1193 10.1752 23.4084 10.2932 23.7456C10.4358 24.1105 10.5071 24.5654 10.5071 25.1104C10.5127 25.4719 10.4713 25.8326 10.3838 26.1834C10.3213 26.4607 10.2002 26.7215 10.0286 26.9483C9.87086 27.1515 9.66192 27.3091 9.42319 27.405C9.14343 27.5096 8.84634 27.56 8.54775 27.5536H7.52731V22.6472ZM14.3115 25.8426V28.7263H12.8796V21.4781H17.4979V22.6617H14.3115V24.6862H17.2224V25.8426H14.3115Z" fill="#6F80DA"/>
</svg>
