<svg width="30" height="30" viewBox="0 0 30 30" fill="none" xmlns="http://www.w3.org/2000/svg">
<g clip-path="url(#clip0_169_10264)">
<path d="M27.4664 24.6095C25.8597 21.7896 23.3508 19.5924 20.3437 18.3716C21.8391 17.25 22.9438 15.6864 23.5011 13.9021C24.0585 12.1179 24.0403 10.2035 23.4492 8.43018C22.8581 6.65684 21.724 5.11444 20.2076 4.02146C18.6911 2.92848 16.8692 2.34033 15 2.34033C13.1307 2.34033 11.3088 2.92848 9.7924 4.02146C8.27597 5.11444 7.14188 6.65684 6.55077 8.43018C5.95965 10.2035 5.94148 12.1179 6.49884 13.9021C7.05619 15.6864 8.16081 17.25 9.65623 18.3716C6.6491 19.5924 4.14026 21.7896 2.53357 24.6095C2.43401 24.7696 2.36766 24.948 2.33845 25.1343C2.30925 25.3205 2.31778 25.5107 2.36356 25.6936C2.40933 25.8765 2.4914 26.0483 2.6049 26.1988C2.7184 26.3493 2.861 26.4755 3.02423 26.5698C3.18746 26.6641 3.36798 26.7246 3.55507 26.7477C3.74216 26.7709 3.93199 26.7562 4.11328 26.7045C4.29457 26.6528 4.46362 26.5652 4.61037 26.4469C4.75713 26.3286 4.8786 26.1819 4.96755 26.0157C7.09099 22.3454 10.841 20.1563 15 20.1563C19.159 20.1563 22.909 22.3466 25.0324 26.0157C25.2252 26.3257 25.531 26.5486 25.8851 26.6372C26.2392 26.7259 26.614 26.6733 26.93 26.4907C27.2461 26.3081 27.4788 26.0097 27.5789 25.6586C27.679 25.3076 27.6386 24.9313 27.4664 24.6095ZM8.90623 11.2501C8.90623 10.0449 9.26362 8.8667 9.93321 7.86459C10.6028 6.86248 11.5545 6.08143 12.668 5.62021C13.7815 5.15899 15.0067 5.03831 16.1888 5.27344C17.3709 5.50857 18.4567 6.08894 19.3089 6.94117C20.1611 7.79339 20.7415 8.87919 20.9766 10.0613C21.2118 11.2433 21.0911 12.4686 20.6299 13.5821C20.1686 14.6956 19.3876 15.6473 18.3855 16.3169C17.3834 16.9865 16.2052 17.3438 15 17.3438C13.3844 17.342 11.8355 16.6994 10.6931 15.557C9.5507 14.4146 8.90809 12.8657 8.90623 11.2501Z" fill="#7887A6"/>
</g>
<defs>
<clipPath id="clip0_169_10264">
<rect width="30" height="30" fill="white"/>
</clipPath>
</defs>
</svg>
