<svg width="40" height="40" viewBox="0 0 40 40" fill="none" xmlns="http://www.w3.org/2000/svg">
<g clip-path="url(#clip0_218_2841)">
<path d="M40 20C40 25.596 37.7016 30.6548 33.9977 34.2846C33.9746 34.3073 33.9511 34.3299 33.9275 34.3526C33.6237 34.6473 33.3107 34.9329 32.9881 35.2084C32.3524 35.7529 31.6819 36.2573 30.9809 36.7185C27.8289 38.7933 24.0553 40 20 40C15.9447 40 12.1711 38.7933 9.0191 36.7185C8.31808 36.2573 7.64757 35.7529 7.01195 35.2084C6.68934 34.9329 6.37632 34.6473 6.07246 34.3526C6.04891 34.3299 6.02537 34.3073 6.00227 34.2846C2.29837 30.6544 0 25.596 0 20C0 8.95414 8.95414 0 20 0C31.0459 0 40 8.95414 40 20Z" fill="#E0E0E0"/>
<path d="M33.9275 34.3524C33.6237 34.6471 33.3107 34.9326 32.988 35.2081C32.3524 35.7527 31.6819 36.2571 30.9809 36.7183C27.8289 38.793 24.0553 39.9998 20 39.9998C15.9447 39.9998 12.1711 38.793 9.01909 36.7183C8.31807 36.2571 7.64756 35.7527 7.01194 35.2081C6.68933 34.9326 6.37631 34.6471 6.07245 34.3524C6.82622 32.0165 8.66945 30.1231 11.1008 29.3558L17.0207 27.4865V26.5103C16.2787 26.0696 15.6156 25.5656 15.0689 25.1964C14.0518 24.5102 13.3673 23.4347 13.165 22.2249L12.8494 20.3363C11.8607 20.3363 11.0615 19.5372 11.0615 18.5485C11.0615 17.8134 11.5027 17.183 12.1357 16.9088C11.583 15.6127 11.1775 14.239 10.9338 12.8304C10.779 11.938 10.6919 10.9968 10.9539 10.1362C11.2154 9.27563 11.9086 8.52055 12.7265 8.50573L12.8337 8.51314C13.3499 7.70705 14.1564 7.17606 15.003 6.86914C15.8497 6.56179 16.7434 6.4576 17.6288 6.35558C17.975 6.31591 18.3229 6.27537 18.6716 6.24049C20.2799 6.08573 22.0311 6.04823 23.6756 6.50599C25.3204 6.96418 26.9095 7.9913 27.747 9.62876C28.4122 10.9279 28.5469 12.4952 28.3795 13.9779C28.2688 14.9618 28.033 15.9196 27.7561 16.8652C28.4462 17.1124 28.9384 17.772 28.9384 18.5485C28.9384 19.5372 28.1402 20.3363 27.1506 20.3363L26.8349 22.2249C26.6327 23.4347 25.9486 24.5102 24.9315 25.1964C24.384 25.5656 23.7218 26.0696 22.9798 26.5103V27.4865L28.8992 29.3558C31.331 30.1236 33.1733 32.0169 33.9275 34.3524Z" fill="#9E9E9E"/>
</g>
<defs>
<clipPath id="clip0_218_2841">
<rect width="40" height="40" fill="white"/>
</clipPath>
</defs>
</svg>
